<svg width="1196" height="530" viewBox="0 0 1196 530" fill="none" xmlns="http://www.w3.org/2000/svg">
<g clip-path="url(#clip0_1_639)">
<rect width="1196" height="530" rx="5" fill="url(#paint0_linear_1_639)"/>
<g style="mix-blend-mode:soft-light" opacity="0.3">
<path d="M542.067 247.2L610.802 155.48L611.761 154.2H610.162H518.603L657.379 -30.2H748.424L679.689 61.5202L678.73 62.8H680.329H748.415L679.098 154.518L678.129 155.8H679.737H724.957L656.579 247.2H542.067ZM843.539 247.2L775.045 155.8H819.789H821.388L820.429 154.52L751.695 62.8H819.789H821.388L820.429 61.5202L751.695 -30.2H842.74L981.398 154.2H889.957H888.358L889.317 155.48L958.051 247.2H843.539Z" stroke="white" stroke-width="1.6"/>
<path d="M-44.1872 117.2L26.7626 22.4796L27.7211 21.2H26.1223H-68.3971L74.8274 -169.2H168.829L97.8795 -74.4796L96.921 -73.2H98.5198H168.821L97.27 21.5178L96.3014 22.8H97.9083H144.617L74.0274 117.2H-44.1872ZM266.904 117.2L196.194 22.8H242.412H244.011L243.052 21.5204L172.102 -73.2H242.412H244.011L243.052 -74.4796L172.102 -169.2H266.104L409.207 21.2H314.809H313.21L314.169 22.4796L385.119 117.2H266.904Z" stroke="white" stroke-width="1.6"/>
<path d="M1047.37 124.2L1075.42 86.8135L1076.38 85.5333H1074.78H1037.6L1094.67 9.8H1131.41L1103.36 47.1865L1102.39 48.4667H1104H1131.4L1103.11 85.8506L1102.14 87.1333H1103.75H1121.64L1093.87 124.2H1047.37ZM1172.17 124.2L1144.36 87.1333H1162.05H1163.65L1162.69 85.8532L1134.64 48.4667H1162.05H1163.65L1162.69 47.1865L1134.64 9.8H1171.38L1228.4 85.5333H1191.27H1189.66L1190.63 86.8135L1218.68 124.2H1172.17Z" stroke="white" stroke-width="1.6"/>
<path d="M84.527 604.2L116.022 562.146L116.981 560.867H115.382H73.6027L137.583 475.8H178.912L147.416 517.854L146.458 519.133H148.057H178.904L147.142 561.185L146.174 562.467H147.781H167.985L136.783 604.2H84.527ZM224.272 604.2L193.016 562.467H212.998H214.597L213.639 561.187L182.143 519.133H212.998H214.597L213.639 517.854L182.143 475.8H223.472L287.398 560.867H245.673H244.074L245.033 562.146L276.528 604.2H224.272Z" stroke="white" stroke-width="1.6"/>
<path d="M-33.1253 413.2L17.2116 346.147L18.1727 344.867H16.5718H-50.395L51.4309 209.8H117.916L67.579 276.853L66.6178 278.133H68.2187H117.908L67.1447 345.184L66.1735 346.467H67.7825H100.644L50.632 413.2H-33.1253ZM188.455 413.2L138.358 346.467H170.868H172.469L171.508 345.186L121.171 278.133H170.868H172.469L171.508 276.853L121.171 209.8H187.656L289.396 344.867H222.515H220.915L221.876 346.147L272.213 413.2H188.455Z" stroke="white" stroke-width="1.6"/>
<path d="M1066.74 381.2L1101.82 334.48L1102.78 333.2H1101.18H1054.61L1125.79 238.8H1171.91L1136.83 285.52L1135.87 286.8H1137.47H1171.9L1136.52 333.517L1135.55 334.8H1137.16H1159.78L1124.99 381.2H1066.74ZM1222.07 381.2L1187.23 334.8H1209.59H1211.19L1210.23 333.52L1175.15 286.8H1209.59H1211.19L1210.23 285.52L1175.15 238.8H1221.27L1292.4 333.2H1245.88H1244.28L1245.24 334.48L1280.32 381.2H1222.07Z" stroke="white" stroke-width="1.6"/>
<path d="M798.658 678.2L863.204 592.147L864.164 590.867H862.564H776.604L906.968 417.8H992.421L927.876 503.853L926.915 505.133H928.515H992.413L927.32 591.184L926.35 592.467H927.958H970.365L906.168 678.2H798.658ZM1081.94 678.2L1017.64 592.467H1059.6H1061.2L1060.24 591.187L995.69 505.133H1059.6H1061.2L1060.24 503.853L995.69 417.8H1081.14L1211.4 590.867H1125.55H1123.95L1124.91 592.147L1189.45 678.2H1081.94Z" stroke="white" stroke-width="1.6"/>
<path d="M399.969 579.2L447.613 515.814L448.575 514.533H446.973H383.606L480.024 386.8H542.914L495.27 450.186L494.308 451.467H495.91H542.906L494.859 514.85L493.886 516.133H495.497H526.548L479.225 579.2H399.969ZM609.857 579.2L562.454 516.133H593.173H594.775L593.812 514.853L546.169 451.467H593.173H594.775L593.812 450.186L546.169 386.8H609.059L705.395 514.533H642.109H640.507L641.47 515.814L689.113 579.2H609.857Z" stroke="white" stroke-width="1.6"/>
</g>
</g>
<defs>
<linearGradient id="paint0_linear_1_639" x1="598" y1="0" x2="598" y2="530" gradientUnits="userSpaceOnUse">
<stop stop-color="#00995D"/>
<stop offset="1" stop-color="#59B650"/>
</linearGradient>
<clipPath id="clip0_1_639">
<rect width="1196" height="530" rx="5" fill="white"/>
</clipPath>
</defs>
</svg>
