<svg width="90" height="133" viewBox="0 0 90 133" fill="none" xmlns="http://www.w3.org/2000/svg">
<path d="M19.9679 111L16.6719 100.504H18.0959L19.7119 106.168C19.8399 106.595 19.9572 106.995 20.0639 107.368C20.1705 107.731 20.2772 108.099 20.3839 108.472C20.4905 108.835 20.6079 109.224 20.7359 109.64H20.7999C20.9172 109.224 21.0292 108.835 21.1359 108.472C21.2425 108.099 21.3492 107.731 21.4559 107.368C21.5625 106.995 21.6799 106.595 21.8079 106.168L23.5519 100.504H24.9119L21.5199 111H19.9679ZM29.1359 111.192C28.4425 111.192 27.8079 111.032 27.2319 110.712C26.6665 110.381 26.2185 109.917 25.8879 109.32C25.5572 108.712 25.3919 107.976 25.3919 107.112C25.3919 106.269 25.5625 105.544 25.9039 104.936C26.2452 104.328 26.6825 103.859 27.2159 103.528C27.7492 103.197 28.3145 103.032 28.9119 103.032C29.5732 103.032 30.1332 103.187 30.5919 103.496C31.0612 103.795 31.4132 104.216 31.6479 104.76C31.8825 105.304 31.9999 105.944 31.9999 106.68C31.9999 106.819 31.9945 106.952 31.9839 107.08C31.9839 107.208 31.9679 107.336 31.9359 107.464H26.3359V106.424H30.8159C30.8159 105.677 30.6505 105.107 30.3199 104.712C29.9999 104.307 29.5359 104.104 28.9279 104.104C28.5759 104.104 28.2292 104.205 27.8879 104.408C27.5465 104.6 27.2639 104.915 27.0399 105.352C26.8265 105.789 26.7199 106.371 26.7199 107.096C26.7199 107.757 26.8319 108.312 27.0559 108.76C27.2905 109.208 27.6052 109.549 27.9999 109.784C28.3945 110.008 28.8265 110.12 29.2959 110.12C29.6692 110.12 30.0159 110.067 30.3359 109.96C30.6665 109.853 30.9652 109.709 31.2319 109.528L31.7119 110.392C31.3705 110.627 30.9865 110.819 30.5599 110.968C30.1439 111.117 29.6692 111.192 29.1359 111.192ZM33.9214 111V103.224H35.0094L35.1214 104.632H35.1694C35.4254 104.141 35.7454 103.752 36.1294 103.464C36.5134 103.176 36.9294 103.032 37.3774 103.032C37.548 103.032 37.6974 103.043 37.8254 103.064C37.9534 103.085 38.0814 103.128 38.2094 103.192L37.9214 104.312C37.804 104.28 37.692 104.259 37.5854 104.248C37.4894 104.227 37.3614 104.216 37.2014 104.216C36.8707 104.216 36.524 104.349 36.1614 104.616C35.8094 104.883 35.5 105.347 35.2334 106.008V111H33.9214ZM42.6714 111V103.224H43.7594L43.8714 104.344H43.9194C44.2607 103.981 44.6287 103.672 45.0234 103.416C45.4287 103.16 45.866 103.032 46.3354 103.032C46.9327 103.032 47.3967 103.165 47.7274 103.432C48.0687 103.699 48.3194 104.061 48.4794 104.52C48.8847 104.072 49.2954 103.715 49.7114 103.448C50.1274 103.171 50.57 103.032 51.0394 103.032C51.85 103.032 52.4474 103.293 52.8314 103.816C53.2154 104.328 53.4074 105.08 53.4074 106.072V111H52.0954V106.248C52.0954 105.512 51.978 104.984 51.7434 104.664C51.5087 104.333 51.146 104.168 50.6554 104.168C50.346 104.168 50.0314 104.269 49.7114 104.472C49.402 104.664 49.066 104.963 48.7034 105.368V111H47.3914V106.248C47.3914 105.512 47.274 104.984 47.0394 104.664C46.8047 104.333 46.4367 104.168 45.9354 104.168C45.3487 104.168 44.698 104.568 43.9834 105.368V111H42.6714ZM57.729 111.192C57.3023 111.192 56.913 111.107 56.561 110.936C56.2197 110.755 55.9477 110.504 55.745 110.184C55.5423 109.853 55.441 109.453 55.441 108.984C55.441 108.109 55.825 107.448 56.593 107C57.361 106.552 58.577 106.237 60.241 106.056C60.2303 105.736 60.177 105.427 60.081 105.128C59.9957 104.829 59.8357 104.589 59.601 104.408C59.3663 104.227 59.041 104.136 58.625 104.136C58.177 104.136 57.7557 104.221 57.361 104.392C56.9663 104.552 56.6143 104.733 56.305 104.936L55.793 104.04C56.0277 103.88 56.305 103.725 56.625 103.576C56.945 103.416 57.2917 103.288 57.665 103.192C58.0383 103.085 58.433 103.032 58.849 103.032C59.4783 103.032 59.9903 103.165 60.385 103.432C60.7903 103.688 61.0837 104.056 61.265 104.536C61.457 105.016 61.553 105.581 61.553 106.232V111H60.465L60.353 110.072H60.305C59.9317 110.381 59.5317 110.648 59.105 110.872C58.6783 111.085 58.2197 111.192 57.729 111.192ZM58.097 110.104C58.481 110.104 58.8383 110.019 59.169 109.848C59.5103 109.677 59.8677 109.427 60.241 109.096V107C59.3663 107.107 58.673 107.245 58.161 107.416C57.6597 107.576 57.297 107.779 57.073 108.024C56.849 108.269 56.737 108.563 56.737 108.904C56.737 109.331 56.8703 109.64 57.137 109.832C57.4037 110.013 57.7237 110.104 58.097 110.104ZM63.9995 111V103.224H65.3115V111H63.9995ZM64.6555 101.624C64.3995 101.624 64.1862 101.544 64.0155 101.384C63.8555 101.224 63.7755 101.016 63.7755 100.76C63.7755 100.504 63.8555 100.296 64.0155 100.136C64.1862 99.976 64.3995 99.896 64.6555 99.896C64.9115 99.896 65.1195 99.976 65.2795 100.136C65.4502 100.296 65.5355 100.504 65.5355 100.76C65.5355 101.016 65.4502 101.224 65.2795 101.384C65.1195 101.544 64.9115 101.624 64.6555 101.624ZM69.969 111.192C69.4037 111.192 68.865 111.096 68.353 110.904C67.8517 110.701 67.425 110.424 67.073 110.072L67.681 109.304C68.0223 109.581 68.3743 109.795 68.737 109.944C69.1103 110.093 69.537 110.168 70.017 110.168C70.529 110.168 70.913 110.051 71.169 109.816C71.425 109.571 71.553 109.283 71.553 108.952C71.553 108.685 71.4623 108.467 71.281 108.296C71.1103 108.115 70.8917 107.965 70.625 107.848C70.369 107.72 70.0917 107.603 69.793 107.496C69.409 107.357 69.041 107.197 68.689 107.016C68.337 106.824 68.049 106.589 67.825 106.312C67.6117 106.024 67.505 105.667 67.505 105.24C67.505 104.611 67.7397 104.088 68.209 103.672C68.689 103.245 69.3503 103.032 70.193 103.032C70.673 103.032 71.121 103.117 71.537 103.288C71.953 103.448 72.3103 103.656 72.609 103.912L72.001 104.664C71.7237 104.472 71.441 104.323 71.153 104.216C70.865 104.109 70.545 104.056 70.193 104.056C69.7023 104.056 69.3397 104.168 69.105 104.392C68.881 104.616 68.769 104.877 68.769 105.176C68.769 105.411 68.8383 105.608 68.977 105.768C69.1157 105.917 69.3077 106.051 69.553 106.168C69.809 106.285 70.097 106.397 70.417 106.504C70.8223 106.653 71.2063 106.824 71.569 107.016C71.9423 107.197 72.241 107.437 72.465 107.736C72.6997 108.024 72.817 108.403 72.817 108.872C72.817 109.299 72.705 109.688 72.481 110.04C72.2677 110.381 71.9477 110.659 71.521 110.872C71.105 111.085 70.5877 111.192 69.969 111.192ZM17.0265 129.192C16.3332 129.192 15.6985 129.032 15.1225 128.712C14.5572 128.381 14.1092 127.917 13.7785 127.32C13.4478 126.712 13.2825 125.976 13.2825 125.112C13.2825 124.269 13.4532 123.544 13.7945 122.936C14.1358 122.328 14.5732 121.859 15.1065 121.528C15.6398 121.197 16.2052 121.032 16.8025 121.032C17.4638 121.032 18.0238 121.187 18.4825 121.496C18.9518 121.795 19.3038 122.216 19.5385 122.76C19.7732 123.304 19.8905 123.944 19.8905 124.68C19.8905 124.819 19.8852 124.952 19.8745 125.08C19.8745 125.208 19.8585 125.336 19.8265 125.464H14.2265V124.424H18.7065C18.7065 123.677 18.5412 123.107 18.2105 122.712C17.8905 122.307 17.4265 122.104 16.8185 122.104C16.4665 122.104 16.1198 122.205 15.7785 122.408C15.4372 122.6 15.1545 122.915 14.9305 123.352C14.7172 123.789 14.6105 124.371 14.6105 125.096C14.6105 125.757 14.7225 126.312 14.9465 126.76C15.1812 127.208 15.4958 127.549 15.8905 127.784C16.2852 128.008 16.7172 128.12 17.1865 128.12C17.5598 128.12 17.9065 128.067 18.2265 127.96C18.5572 127.853 18.8558 127.709 19.1225 127.528L19.6025 128.392C19.2612 128.627 18.8772 128.819 18.4505 128.968C18.0345 129.117 17.5598 129.192 17.0265 129.192ZM21.812 129V121.224H22.9L23.012 122.344H23.06C23.4013 121.981 23.7693 121.672 24.164 121.416C24.5693 121.16 25.0067 121.032 25.476 121.032C26.0733 121.032 26.5373 121.165 26.868 121.432C27.2093 121.699 27.46 122.061 27.62 122.52C28.0253 122.072 28.436 121.715 28.852 121.448C29.268 121.171 29.7107 121.032 30.18 121.032C30.9907 121.032 31.588 121.293 31.972 121.816C32.356 122.328 32.548 123.08 32.548 124.072V129H31.236V124.248C31.236 123.512 31.1187 122.984 30.884 122.664C30.6493 122.333 30.2867 122.168 29.796 122.168C29.4867 122.168 29.172 122.269 28.852 122.472C28.5427 122.664 28.2067 122.963 27.844 123.368V129H26.532V124.248C26.532 123.512 26.4147 122.984 26.18 122.664C25.9453 122.333 25.5773 122.168 25.076 122.168C24.4893 122.168 23.8387 122.568 23.124 123.368V129H21.812ZM35.0776 132.28V121.224H36.1656L36.2776 122.12H36.3256C36.6776 121.821 37.067 121.565 37.4936 121.352C37.9203 121.139 38.3576 121.032 38.8056 121.032C39.467 121.032 40.027 121.197 40.4856 121.528C40.9443 121.848 41.291 122.307 41.5256 122.904C41.7603 123.491 41.8776 124.189 41.8776 125C41.8776 125.875 41.7176 126.627 41.3976 127.256C41.0883 127.885 40.6776 128.365 40.1656 128.696C39.6536 129.027 39.1043 129.192 38.5176 129.192C38.1656 129.192 37.8083 129.112 37.4456 128.952C37.083 128.792 36.7203 128.573 36.3576 128.296L36.3896 129.656V132.28H35.0776ZM38.2936 128.088C38.7203 128.088 39.099 127.965 39.4296 127.72C39.771 127.475 40.0376 127.123 40.2296 126.664C40.4216 126.195 40.5176 125.64 40.5176 125C40.5176 124.435 40.4483 123.939 40.3096 123.512C40.171 123.075 39.9523 122.739 39.6536 122.504C39.355 122.259 38.9603 122.136 38.4696 122.136C38.1496 122.136 37.819 122.227 37.4776 122.408C37.1363 122.579 36.7736 122.84 36.3896 123.192V127.272C36.7523 127.571 37.0936 127.784 37.4136 127.912C37.7443 128.029 38.0376 128.088 38.2936 128.088ZM43.9526 129V121.224H45.0406L45.1526 122.632H45.2006C45.4566 122.141 45.7766 121.752 46.1606 121.464C46.5446 121.176 46.9606 121.032 47.4086 121.032C47.5793 121.032 47.7286 121.043 47.8566 121.064C47.9846 121.085 48.1126 121.128 48.2406 121.192L47.9526 122.312C47.8353 122.28 47.7233 122.259 47.6166 122.248C47.5206 122.227 47.3926 122.216 47.2326 122.216C46.902 122.216 46.5553 122.349 46.1926 122.616C45.8406 122.883 45.5313 123.347 45.2646 124.008V129H43.9526ZM52.4953 129.192C51.8019 129.192 51.1673 129.032 50.5913 128.712C50.0259 128.381 49.5779 127.917 49.2473 127.32C48.9166 126.712 48.7513 125.976 48.7513 125.112C48.7513 124.269 48.9219 123.544 49.2633 122.936C49.6046 122.328 50.0419 121.859 50.5753 121.528C51.1086 121.197 51.6739 121.032 52.2713 121.032C52.9326 121.032 53.4926 121.187 53.9513 121.496C54.4206 121.795 54.7726 122.216 55.0073 122.76C55.2419 123.304 55.3593 123.944 55.3593 124.68C55.3593 124.819 55.3539 124.952 55.3433 125.08C55.3433 125.208 55.3273 125.336 55.2953 125.464H49.6953V124.424H54.1753C54.1753 123.677 54.0099 123.107 53.6793 122.712C53.3593 122.307 52.8953 122.104 52.2873 122.104C51.9353 122.104 51.5886 122.205 51.2473 122.408C50.9059 122.6 50.6233 122.915 50.3993 123.352C50.1859 123.789 50.0793 124.371 50.0793 125.096C50.0793 125.757 50.1913 126.312 50.4153 126.76C50.6499 127.208 50.9646 127.549 51.3593 127.784C51.7539 128.008 52.1859 128.12 52.6553 128.12C53.0286 128.12 53.3753 128.067 53.6953 127.96C54.0259 127.853 54.3246 127.709 54.5913 127.528L55.0713 128.392C54.7299 128.627 54.3459 128.819 53.9193 128.968C53.5033 129.117 53.0286 129.192 52.4953 129.192ZM59.3128 129.192C58.7474 129.192 58.2088 129.096 57.6968 128.904C57.1954 128.701 56.7688 128.424 56.4168 128.072L57.0247 127.304C57.3661 127.581 57.7181 127.795 58.0807 127.944C58.4541 128.093 58.8808 128.168 59.3608 128.168C59.8728 128.168 60.2568 128.051 60.5128 127.816C60.7688 127.571 60.8968 127.283 60.8968 126.952C60.8968 126.685 60.8061 126.467 60.6248 126.296C60.4541 126.115 60.2354 125.965 59.9688 125.848C59.7128 125.72 59.4354 125.603 59.1368 125.496C58.7528 125.357 58.3848 125.197 58.0328 125.016C57.6808 124.824 57.3928 124.589 57.1688 124.312C56.9554 124.024 56.8488 123.667 56.8488 123.24C56.8488 122.611 57.0834 122.088 57.5528 121.672C58.0328 121.245 58.6941 121.032 59.5368 121.032C60.0168 121.032 60.4648 121.117 60.8808 121.288C61.2968 121.448 61.6541 121.656 61.9528 121.912L61.3448 122.664C61.0674 122.472 60.7848 122.323 60.4968 122.216C60.2088 122.109 59.8888 122.056 59.5368 122.056C59.0461 122.056 58.6834 122.168 58.4488 122.392C58.2248 122.616 58.1128 122.877 58.1128 123.176C58.1128 123.411 58.1821 123.608 58.3207 123.768C58.4594 123.917 58.6514 124.051 58.8968 124.168C59.1528 124.285 59.4408 124.397 59.7608 124.504C60.1661 124.653 60.5501 124.824 60.9128 125.016C61.2861 125.197 61.5848 125.437 61.8088 125.736C62.0434 126.024 62.1608 126.403 62.1608 126.872C62.1608 127.299 62.0488 127.688 61.8248 128.04C61.6114 128.381 61.2914 128.659 60.8648 128.872C60.4488 129.085 59.9314 129.192 59.3128 129.192ZM65.7759 129.192C65.3492 129.192 64.9599 129.107 64.6079 128.936C64.2665 128.755 63.9945 128.504 63.7919 128.184C63.5892 127.853 63.4879 127.453 63.4879 126.984C63.4879 126.109 63.8719 125.448 64.6399 125C65.4079 124.552 66.6239 124.237 68.2879 124.056C68.2772 123.736 68.2239 123.427 68.1279 123.128C68.0425 122.829 67.8825 122.589 67.6479 122.408C67.4132 122.227 67.0879 122.136 66.6719 122.136C66.2239 122.136 65.8025 122.221 65.4079 122.392C65.0132 122.552 64.6612 122.733 64.3519 122.936L63.8399 122.04C64.0745 121.88 64.3519 121.725 64.6719 121.576C64.9919 121.416 65.3385 121.288 65.7119 121.192C66.0852 121.085 66.4799 121.032 66.8959 121.032C67.5252 121.032 68.0372 121.165 68.4319 121.432C68.8372 121.688 69.1305 122.056 69.3119 122.536C69.5039 123.016 69.5999 123.581 69.5999 124.232V129H68.5119L68.3999 128.072H68.3519C67.9785 128.381 67.5785 128.648 67.1519 128.872C66.7252 129.085 66.2665 129.192 65.7759 129.192ZM66.1439 128.104C66.5279 128.104 66.8852 128.019 67.2159 127.848C67.5572 127.677 67.9145 127.427 68.2879 127.096V125C67.4132 125.107 66.7199 125.245 66.2079 125.416C65.7065 125.576 65.3439 125.779 65.1199 126.024C64.8959 126.269 64.7839 126.563 64.7839 126.904C64.7839 127.331 64.9172 127.64 65.1839 127.832C65.4505 128.013 65.7705 128.104 66.1439 128.104ZM74.0784 129.192C73.513 129.192 72.9744 129.096 72.4624 128.904C71.961 128.701 71.5344 128.424 71.1824 128.072L71.7904 127.304C72.1317 127.581 72.4837 127.795 72.8464 127.944C73.2197 128.093 73.6464 128.168 74.1264 128.168C74.6384 128.168 75.0224 128.051 75.2784 127.816C75.5344 127.571 75.6624 127.283 75.6624 126.952C75.6624 126.685 75.5717 126.467 75.3904 126.296C75.2197 126.115 75.001 125.965 74.7344 125.848C74.4784 125.72 74.201 125.603 73.9024 125.496C73.5184 125.357 73.1504 125.197 72.7984 125.016C72.4464 124.824 72.1584 124.589 71.9344 124.312C71.721 124.024 71.6144 123.667 71.6144 123.24C71.6144 122.611 71.849 122.088 72.3184 121.672C72.7984 121.245 73.4597 121.032 74.3024 121.032C74.7824 121.032 75.2304 121.117 75.6464 121.288C76.0624 121.448 76.4197 121.656 76.7184 121.912L76.1104 122.664C75.833 122.472 75.5504 122.323 75.2624 122.216C74.9744 122.109 74.6544 122.056 74.3024 122.056C73.8117 122.056 73.449 122.168 73.2144 122.392C72.9904 122.616 72.8784 122.877 72.8784 123.176C72.8784 123.411 72.9477 123.608 73.0864 123.768C73.225 123.917 73.417 124.051 73.6624 124.168C73.9184 124.285 74.2064 124.397 74.5264 124.504C74.9317 124.653 75.3157 124.824 75.6784 125.016C76.0517 125.197 76.3504 125.437 76.5744 125.736C76.809 126.024 76.9264 126.403 76.9264 126.872C76.9264 127.299 76.8144 127.688 76.5904 128.04C76.377 128.381 76.057 128.659 75.6304 128.872C75.2144 129.085 74.697 129.192 74.0784 129.192Z" fill="#737373"/>
<circle cx="45" cy="45" r="45" fill="white"/>
<path d="M42.7158 48.5438C41.0934 46.9556 41.3969 44.1992 43.6265 43.0414C44.5895 42.5393 45.7932 42.5393 46.7562 43.0414C48.9857 44.189 49.2893 46.9556 47.6669 48.5438C47.5726 48.636 47.4784 48.718 47.3738 48.8" stroke="#F47920" stroke-width="2" stroke-linecap="round" stroke-linejoin="round"/>
<path d="M30.2947 48.5438C28.6722 46.9556 28.9758 44.1992 31.2053 43.0414C32.1683 42.5393 33.3721 42.5393 34.3351 43.0414C36.5646 44.189 36.8681 46.9556 35.2457 48.5438C35.1515 48.636 35.0573 48.718 34.9526 48.8" stroke="#F47920" stroke-width="2" stroke-linecap="round" stroke-linejoin="round"/>
<path d="M55.1575 48.5438C53.535 46.9556 53.8386 44.1992 56.0681 43.0414C57.0311 42.5393 58.2349 42.5393 59.1978 43.0414C61.4274 44.189 61.7309 46.9556 60.1085 48.5438C60.0143 48.636 59.9201 48.718 59.8154 48.8" stroke="#F47920" stroke-width="2" stroke-linecap="round" stroke-linejoin="round"/>
</svg>
